<?xml version="1.0" encoding="UTF-8"?>
<svg width="1008px" height="1825px" viewBox="0 0 1008 1825" version="1.1" xmlns="http://www.w3.org/2000/svg" xmlns:xlink="http://www.w3.org/1999/xlink">
    <title>frame border copy</title>
    <g id="Page-1" stroke="none" stroke-width="1" fill="none" fill-rule="evenodd">
        <g id="Desktop" transform="translate(-2.000000, -9977.000000)" stroke="#360505">
            <g id="tickets" transform="translate(4.000000, 9979.000000)">
                <g id="frame-border">
                    <g id="Path">
                        <path d="M166.485591,249.90252 L284.580499,249.90252 C331.560232,129.655845 403.542259,69.5325077 500.526578,69.5325077 C597.510897,69.5325077 672.193377,129.655845 724.574018,249.90252 L839.704227,249.90252 L839.704227,330.454776 L966.525661,330.454776 L966.525661,1491.79645 L839.704227,1491.79645 L839.704227,1575.19274 L724.574018,1575.19274 C678.049731,1699.60929 603.367251,1759.2016 500.526578,1753.96968 C397.685904,1748.73776 325.703878,1690.32499 284.580499,1578.73137 L166.485591,1578.73137 L166.485591,1491.79645 L39.0357698,1491.79645 L39.0357698,330.454776 L166.485591,330.454776 L166.485591,249.90252 Z" stroke-width="8"></path>
                        <path d="M137.963359,194.956544 L265.800102,194.956544 C316.655268,64.9855148 394.575206,0 499.559915,0 C604.544624,0 685.38778,64.9855148 742.089383,194.956544 L866.716865,194.956544 L866.716865,282.023065 L1004,282.023065 L1004,1537.2825 L866.716865,1537.2825 L866.716865,1627.42305 L742.089383,1627.42305 C691.727234,1761.90117 610.884078,1826.31272 499.559915,1820.65769 C388.235752,1815.00266 310.315814,1751.86605 265.800102,1631.24785 L137.963359,1631.24785 L137.963359,1537.2825 L0,1537.2825 L0,282.023065 L137.963359,282.023065 L137.963359,194.956544 Z" stroke-width="2.64"></path>
                    </g>
                </g>
            </g>
        </g>
    </g>
</svg>