<?xml version="1.0" encoding="UTF-8"?>
<svg width="1290px" height="2026px" viewBox="0 0 1290 2026" version="1.1" xmlns="http://www.w3.org/2000/svg" xmlns:xlink="http://www.w3.org/1999/xlink">
    <title>frame border</title>
    <g id="Page-1" stroke="none" stroke-width="1" fill="none" fill-rule="evenodd">
        <g id="Desktop-HD" transform="translate(-75.000000, -9685.000000)" stroke="#360505">
            <g id="tickets" transform="translate(77.000000, 9687.000000)">
                <g id="frame-border">
                    <g id="Path">
                        <path d="M213.24748,277.486489 L364.512471,277.486489 C424.687708,143.967116 516.887793,77.2074303 641.112728,77.2074303 C765.337662,77.2074303 860.996696,143.967116 928.089828,277.486489 L1075.55741,277.486489 L1075.55741,366.930015 L1238,366.930015 L1238,1656.45932 L1075.55741,1656.45932 L1075.55741,1749.0608 L928.089828,1749.0608 C868.497962,1887.21031 772.838929,1953.38036 641.112728,1947.57094 C509.386527,1941.76153 417.186441,1876.90122 364.512471,1752.99003 L213.24748,1752.99003 L213.24748,1656.45932 L50,1656.45932 L50,366.930015 L213.24748,366.930015 L213.24748,277.486489 Z" stroke-width="8"></path>
                        <path d="M176.714023,216.475636 L340.457103,216.475636 C405.59629,72.1585453 505.402106,0 639.874552,0 C774.346998,0 877.897097,72.1585453 950.524847,216.475636 L1110.15726,216.475636 L1110.15726,313.152465 L1286,313.152465 L1286,1706.96607 L1110.15726,1706.96607 L1110.15726,1807.05624 L950.524847,1807.05624 C886.017154,1956.37791 782.467056,2027.89913 639.874552,2021.61991 C497.282048,2015.34068 397.476232,1945.23512 340.457103,1811.30322 L176.714023,1811.30322 L176.714023,1706.96607 L0,1706.96607 L0,313.152465 L176.714023,313.152465 L176.714023,216.475636 Z" stroke-width="2.64"></path>
                    </g>
                </g>
            </g>
        </g>
    </g>
</svg>