<?xml version="1.0" encoding="UTF-8"?>
<svg width="1008px" height="1645px" viewBox="0 0 1008 1645" version="1.1" xmlns="http://www.w3.org/2000/svg" xmlns:xlink="http://www.w3.org/1999/xlink">
    <title>frame border</title>
    <g id="Page-1" stroke="none" stroke-width="1" fill="none" fill-rule="evenodd">
        <g id="Tablet" transform="translate(119.000000, -8056.000000)" stroke="#360505">
            <g id="tickets-copy" transform="translate(-117.000000, 7737.000000)">
                <g id="frame-border-copy-2" transform="translate(0.000000, 321.000000)">
                    <g id="frame-border">
                        <path d="M166.485591,225.200459 L284.580499,225.200459 C331.560232,116.839781 403.542259,62.6594427 500.526578,62.6594427 C597.510897,62.6594427 672.193377,116.839781 724.574018,225.200459 L839.704227,225.200459 L839.704227,297.790383 L966.525661,297.790383 L966.525661,1344.33716 L839.704227,1344.33716 L839.704227,1419.49 L724.574018,1419.49 C678.049731,1531.60837 603.367251,1585.31017 500.526578,1580.59541 C397.685904,1575.88065 325.703878,1523.24179 284.580499,1422.67885 L166.485591,1422.67885 L166.485591,1344.33716 L39.0357698,1344.33716 L39.0357698,297.790383 L166.485591,297.790383 L166.485591,225.200459 Z" id="Path" stroke-width="8"></path>
                        <path d="M137.963359,175.685716 L265.800102,175.685716 C316.655268,58.5619054 394.575206,0 499.559915,0 C604.544624,0 685.38778,58.5619054 742.089383,175.685716 L866.716865,175.685716 L866.716865,254.145991 L1004,254.145991 L1004,1385.32706 L866.716865,1385.32706 L866.716865,1466.55751 L742.089383,1466.55751 C691.727234,1587.7429 610.884078,1645.78757 499.559915,1640.69153 C388.235752,1635.59548 310.315814,1578.69972 265.800102,1470.00424 L137.963359,1470.00424 L137.963359,1385.32706 L0,1385.32706 L0,254.145991 L137.963359,254.145991 L137.963359,175.685716 Z" id="Path" stroke-width="2.64"></path>
                    </g>
                </g>
            </g>
        </g>
    </g>
</svg>